<svg id="Capa_1" enable-background="new 0 0 512 512" height="220" viewBox="0 0 512 512" width="512" xmlns="http://www.w3.org/2000/svg"><g><path d="m177.678 295.083h156.643v200.656h-156.643z" fill="#c77e67"/><path d="m177.678 295.083h156.643v29.704h-156.643z" fill="#be694e"/><path d="m334.322 388.971v106.768h146.31c5.707 0 10.333-4.626 10.333-10.333v-96.435z" fill="#c77e67"/><path d="m334.322 388.971h156.643v29.704h-156.643z" fill="#be694e"/><path d="m334.322 388.971h30.753v106.768h-30.753z" fill="#be694e"/><path d="m177.678 425.417v70.321h-146.31c-5.707 0-10.333-4.626-10.333-10.333v-59.988z" fill="#c77e67"/><path d="m21.035 425.417h156.643v29.704h-156.643z" fill="#be694e"/><path d="m146.925 425.417h30.753v70.321h-30.753z" fill="#be694e"/><g fill="#e69824"><path d="m369.643 154.845h-68.821c-4.268 0-7.726-3.459-7.726-7.726v-54.572c0-4.267 3.459-7.726 7.726-7.726h68.821c19.306 0 35.012 15.706 35.012 35.012s-15.706 35.012-35.012 35.012zm-61.095-15.453h61.095c10.785 0 19.559-8.774 19.559-19.559s-8.775-19.559-19.559-19.559h-61.095z"/><path d="m211.178 154.845h-68.821c-19.306 0-35.012-15.706-35.012-35.012s15.706-35.012 35.012-35.012h68.821c4.268 0 7.726 3.459 7.726 7.726v54.571c0 4.268-3.458 7.727-7.726 7.727zm-68.821-54.571c-10.785 0-19.559 8.774-19.559 19.559s8.775 19.559 19.559 19.559h61.095v-39.119h-61.095z"/></g><path d="m233.055 173.179h45.89v82.195h-45.89z" fill="#e69824"/><g fill="#766d78"><path d="m146.925 289.916v-29.376c0-2.853 2.313-5.167 5.167-5.167h207.817c2.853 0 5.167 2.313 5.167 5.167v29.376c0 2.853-2.313 5.167-5.167 5.167h-207.817c-2.854 0-5.167-2.313-5.167-5.167z"/><path d="m334.322 388.971v-39.709h172.512c2.853 0 5.167 2.313 5.167 5.167v29.376c0 2.853-2.313 5.167-5.167 5.167h-172.512z"/><path d="m0 420.251v-29.376c0-2.853 2.313-5.167 5.167-5.167h172.512v39.709h-172.512c-2.854 0-5.167-2.313-5.167-5.166z"/></g><path d="m176.653 118.521v-67.167h158.694v67.167c0 43.822-35.525 79.347-79.347 79.347s-79.347-35.525-79.347-79.347z" fill="#eec06b"/><path d="m309.822 51.354v67.167c0 39.476-28.832 72.205-66.584 78.311 4.156.672 8.416 1.035 12.763 1.035 43.822 0 79.347-35.525 79.347-79.347v-67.166z" fill="#e9a52d"/><path d="m176.653 51.354h158.694v27.179h-158.694z" fill="#e9a52d"/><path d="m145.545 24.052v19.511c0 4.303 3.488 7.791 7.791 7.791h205.327c4.303 0 7.791-3.488 7.791-7.791v-19.511c0-4.303-3.488-7.791-7.791-7.791h-205.327c-4.302 0-7.791 3.488-7.791 7.791z" fill="#eec06b"/><path d="m270.222 408.018h-6.496v-48.474c0-4.267-3.459-7.726-7.726-7.726h-14.222c-4.268 0-7.726 3.459-7.726 7.726s3.459 7.726 7.726 7.726h6.496v40.747h-6.496c-4.268 0-7.726 3.459-7.726 7.726s3.459 7.726 7.726 7.726h28.445c4.268 0 7.726-3.459 7.726-7.726 0-4.266-3.459-7.725-7.727-7.725z" fill="#ddebfd"/><path d="m293.194 105.198-21.363-3.104c-1.239-.18-2.31-.958-2.865-2.081l-9.554-19.359c-1.396-2.828-5.428-2.828-6.823 0l-9.554 19.359c-.554 1.123-1.625 1.901-2.865 2.081l-21.364 3.104c-3.121.453-4.367 4.288-2.109 6.489l15.459 15.069c.897.874 1.306 2.133 1.094 3.367l-3.649 21.277c-.533 3.108 2.729 5.478 5.52 4.011l19.108-10.046c1.108-.583 2.432-.583 3.541 0l19.108 10.046c2.791 1.467 6.053-.903 5.52-4.011l-3.649-21.277c-.212-1.234.197-2.493 1.094-3.367l15.459-15.069c2.258-2.201 1.012-6.036-2.108-6.489z" fill="#de5791"/></g></svg>